# xmcd
#
# Track frame offsets:
#	150
#	10283
#	25278
#	37126
#	54969
#	67730
#	94252
#	107166
#	120411
#	133861
#
# Disc length: 2029 seconds
#
# Revision: 1
# Processed by: cddbd v1.5.2PL0 Copyright (c) Steve Scherf et al.
# Submitted via: EasyCDDAExtractor 11.1.0.1
#
DISCID=8107eb0a
DTITLE=Various Artist - Missisippi Grind Vol 2: Curtis' Road Mix
DYEAR=2015
DGENRE=Blues
TTITLE0=OV Wright - Ace Of Spades
TTITLE1=Tom T Hall - Famous In Missouri
TTITLE2=Rosco Gordon - No More Doggin
TTITLE3=Paul "Wine" Jones - Heels Clickin'
TTITLE4=Leo Welch - I Don't Know Her Name
TTITLE5=RL Burnside - Going' Down South
TTITLE6=Furry Lewis - Shake 'Em Down
TTITLE7=Marshall Chapman - Rainbow Road
TTITLE8=Robert Belfour - Hill Stomp
TTITLE9=John Lee Hooker - My Dream
EXTD=
EXTT0=
EXTT1=
EXTT2=
EXTT3=
EXTT4=
EXTT5=
EXTT6=
EXTT7=
EXTT8=
EXTT9=
PLAYORDER=
